<svg id="visual" viewBox="0 0 900 600" width="900" height="600" xmlns="http://www.w3.org/2000/svg" xmlns:xlink="http://www.w3.org/1999/xlink" version="1.1"><path d="M758 600L749.5 580C741 560 724 520 710.8 480C697.7 440 688.3 400 686.5 360C684.7 320 690.3 280 703.5 240C716.7 200 737.3 160 752.8 120C768.3 80 778.7 40 783.8 20L789 0L900 0L900 20C900 40 900 80 900 120C900 160 900 200 900 240C900 280 900 320 900 360C900 400 900 440 900 480C900 520 900 560 900 580L900 600Z" fill="#0066FF" stroke-linecap="round" stroke-linejoin="miter"></path></svg>